# xmcd
#
# Track frame offsets:
#	151
#	14011
#	28400
#	49795
#	62996
#	75971
#	97217
#	112966
#	124797
#	143542
#	164029
#
# Disc length: 2446 seconds
#
# Revision: 1
# Processed by: cddbd v1.4PL0 Copyright (c) Steve Scherf et al.
# Submitted via: audiograbber 1.81.03
#
DISCID=98098c0b
DTITLE=Steve`Burnside (with the original Marquis) - the`Blues Collection
DYEAR=1999
DGENRE=
TTITLE0=(Turn on your)`Love Lights
TTITLE1=Born Under A Bad Sing
TTITLE2=Rainy Night in Georgia
TTITLE3=Job Down To the Bakery
TTITLE4=Midnight (is a lonely) Hour
TTITLE5=Stormy Monday
TTITLE6=She's Into Something
TTITLE7=Firing Line
TTITLE8=Just as I Am
TTITLE9=Honky Tonk
TTITLE10=Stepped in What
EXTD=
EXTT0=
EXTT1=
EXTT2=
EXTT3=
EXTT4=
EXTT5=
EXTT6=
EXTT7=
EXTT8=
EXTT9=
EXTT10=
PLAYORDER=
